# Blender v2.79 (sub 0) OBJ File: 'infantry1.blend'
# www.blender.org
mtllib infantry1.mtl
o Cube
v 0.689254 -0.002649 -0.980882
v 0.689254 -0.002649 0.980882
v -0.689254 -0.002649 0.980882
v -0.689254 -0.002649 -0.980882
v 0.689255 0.597351 -0.980882
v 0.689254 0.597351 0.980883
v -0.689254 0.597351 0.980882
v -0.689254 0.597351 -0.980882
v -0.647398 0.516816 0.849394
v -0.652968 0.516816 -0.870206
v -0.421065 0.537351 -0.905345
v 0.656381 0.537351 0.769050
v 0.421065 0.537351 0.905345
v -0.656381 0.537351 -0.769050
v -0.421065 0.657351 -0.905344
v 0.656381 0.657351 0.769050
v 0.421065 0.657351 0.905345
v -0.656381 0.657351 -0.769050
v 0.658256 0.537351 -0.767606
v -0.423274 0.537351 0.904417
v -0.658256 0.537351 0.767606
v 0.423274 0.537351 -0.904418
v 0.658256 0.657351 -0.767605
v -0.423274 0.657351 0.904418
v -0.658256 0.657351 0.767605
v 0.423274 0.657351 -0.904417
vt 0.350000 0.004227
vt 0.050000 -0.445773
vt 0.050000 0.004227
vt 0.350000 0.004227
vt 0.650000 -0.445773
vt 0.650000 0.004227
vt 0.425000 0.228565
vt -0.025000 0.078565
vt 0.425000 0.078565
vt 0.650000 0.228565
vt 0.350000 0.078565
vt 0.650000 0.078565
vt 0.575000 0.078565
vt 1.025000 0.228565
vt 1.025000 0.078565
vt 0.350000 0.078565
vt 0.050000 0.228565
vt 0.350000 0.228565
vt 0.350000 -0.445773
vt 0.350000 -0.445773
vt -0.025000 0.228565
vt 0.350000 0.228565
vt 0.575000 0.228565
vt 0.050000 0.078565
vt 0.023847 0.088029
vt 0.976153 -1.088030
vt 0.194550 0.192243
vt 0.192243 0.047792
vt -1.088029 -0.052208
vt 0.192243 -0.052208
vt 0.976153 0.047792
vt 0.805450 -0.052208
vt 0.976153 -0.052208
vt 0.807757 0.947792
vt 2.088029 1.047792
vt 2.088029 0.947792
vt 0.194550 0.947792
vt 0.023847 1.047792
vt 0.194550 1.047792
vt 0.805450 -1.192243
vt -1.088030 0.047792
vt 0.805450 0.047792
vt 0.807757 1.047792
vt 0.023847 0.947792
vt 0.807052 0.191534
vt 0.192948 -1.191534
vt 0.977513 0.086925
vt 0.086925 0.047792
vt -1.191534 -0.052208
vt 0.086925 -0.052208
vt 0.192948 0.047792
vt 0.022487 -0.052208
vt 0.192948 -0.052208
vt 0.913075 0.947792
vt 2.191534 1.047792
vt 2.191534 0.947792
vt 0.977513 0.947792
vt 0.807052 1.047792
vt 0.977513 1.047792
vt 0.022487 -1.086925
vt -1.191534 0.047792
vt 0.022487 0.047792
vt 0.913075 1.047792
vt 0.807052 0.947792
vn 0.0000 -1.0000 -0.0000
vn 0.0000 1.0000 0.0000
vn 1.0000 -0.0000 0.0000
vn -0.0000 -0.0000 1.0000
vn -1.0000 -0.0000 -0.0000
vn 0.0000 0.0000 -1.0000
vn 0.8409 -0.0000 -0.5411
vn 0.5012 -0.0000 0.8653
vn -0.8409 0.0000 0.5411
vn -0.5012 0.0000 -0.8653
vn 0.8397 -0.0000 0.5431
vn -0.5032 -0.0000 0.8642
vn -0.8397 0.0000 -0.5431
vn 0.5032 0.0000 -0.8642
usemtl Material
s off
f 1/1/1 3/2/1 4/3/1
f 8/4/2 6/5/2 5/6/2
f 5/7/3 2/8/3 1/9/3
f 6/10/4 3/11/4 2/12/4
f 3/13/5 8/14/5 4/15/5
f 1/16/6 8/17/6 5/18/6
f 1/1/1 2/19/1 3/2/1
f 8/4/2 7/20/2 6/5/2
f 5/7/3 6/21/3 2/8/3
f 6/10/4 7/22/4 3/11/4
f 3/13/5 7/23/5 8/14/5
f 1/16/6 4/24/6 8/17/6
f 18/25/2 16/26/2 15/27/2
f 15/28/7 12/29/7 11/30/7
f 16/31/8 13/32/8 12/33/8
f 13/34/9 18/35/9 14/36/9
f 11/37/10 18/38/10 15/39/10
f 18/25/2 17/40/2 16/26/2
f 15/28/7 16/41/7 12/29/7
f 16/31/8 17/42/8 13/32/8
f 13/34/9 17/43/9 18/35/9
f 11/37/10 14/44/10 18/38/10
f 26/45/2 24/46/2 23/47/2
f 23/48/11 20/49/11 19/50/11
f 24/51/12 21/52/12 20/53/12
f 21/54/13 26/55/13 22/56/13
f 19/57/14 26/58/14 23/59/14
f 26/45/2 25/60/2 24/46/2
f 23/48/11 24/61/11 20/49/11
f 24/51/12 25/62/12 21/52/12
f 21/54/13 25/63/13 26/55/13
f 19/57/14 22/64/14 26/58/14
